<svg xmlns="http://www.w3.org/2000/svg" width="100%" height="100%" viewBox="0 0 810 280">
  <defs>
    <linearGradient id="purpleMintGrad" x1="0%" y1="0%" x2="100%" y2="100%">
      <stop offset="0%" stop-color="#9B8EC4" />
      <stop offset="100%" stop-color="#A8D8C8" />
    </linearGradient>
    <linearGradient id="purpleMintGradH" x1="0%" y1="0%" x2="100%" y2="0%">
      <stop offset="0%" stop-color="#9B8EC4" />
      <stop offset="100%" stop-color="#A8D8C8" />
    </linearGradient>
    <linearGradient id="cardBorderGrad" x1="0%" y1="0%" x2="100%" y2="100%">
      <stop offset="0%" stop-color="#9B8EC4" stop-opacity="0.6" />
      <stop offset="100%" stop-color="#A8D8C8" stop-opacity="0.6" />
    </linearGradient>
    
  </defs>
  <style>
    text { font-family: 'Segoe UI', 'Helvetica Neue', Ubuntu, sans-serif; }
    
    @keyframes sparkle {
      0%, 100% { opacity: 0.4; }
      50% { opacity: 1; }
    }
    .sparkle { animation: sparkle 2s ease-in-out infinite; }
    @keyframes fadeIn {
      from { opacity: 0; transform: translateY(5px); }
      to { opacity: 1; transform: translateY(0); }
    }
    
  </style>
  <rect x="0" y="0" width="810" height="280" rx="16" fill="#FAFAFC" />
  <rect x="0" y="0" width="810" height="280" rx="16" fill="none" stroke="url(#cardBorderGrad)" stroke-width="1.5" />
  <text x="405.0" y="32" font-size="16" fill="#5A5070" text-anchor="middle" font-weight="700" >🎯 GitHub Milestones</text>
  <g>
  <rect x="20" y="48" width="185" height="95" rx="10" fill="#FFFFFF" />
  <rect x="20" y="48" width="185" height="95" rx="10" fill="none" stroke="url(#cardBorderGrad)" stroke-width="1.2" />
  <circle cx="52" cy="95.5" r="22" fill="#FAFAFC" stroke="url(#purpleMintGrad)" stroke-width="1.5" />
  <text x="52" y="101.5" font-size="20" fill="#4A4359" text-anchor="middle" font-weight="normal" >💻</text>
  <circle cx="190" cy="60" r="2" fill="#A8D8C8" class="sparkle" style="animation-delay: 0.0s" />
  <circle cx="197" cy="66" r="1.5" fill="#9B8EC4" class="sparkle" style="animation-delay: 0.4s" />
  <text x="82" y="86" font-size="12" fill="#4A4359" text-anchor="start" font-weight="600" >100+ Commits</text>
  <text x="82" y="104" font-size="10" fill="#8A80A0" text-anchor="start" font-weight="normal" >Contributed 100+ times</text>
  <text x="82" y="124" font-size="9" fill="#A8D8C8" text-anchor="start" font-weight="normal" >✅ Unlocked</text>
  </g>
  <g>
  <rect x="215" y="48" width="185" height="95" rx="10" fill="#F5F5F5" />
  <rect x="215" y="48" width="185" height="95" rx="10" fill="none" stroke="#E0E0E0" stroke-width="1" />
  <circle cx="247" cy="95.5" r="22" fill="#FAFAFC" stroke="#E0E0E0" stroke-width="1.5" />
  <text x="247" y="101.5" font-size="18" fill="#B0B0B0" text-anchor="middle" font-weight="normal" >🔒</text>
  <text x="277" y="86" font-size="12" fill="#B0B0B0" text-anchor="start" font-weight="600" >500+ Commits</text>
  <text x="277" y="104" font-size="10" fill="#B0B0B0" text-anchor="start" font-weight="normal" >Contributed 500+ times</text>
  <text x="277" y="124" font-size="9" fill="#B0B0B0" text-anchor="start" font-weight="normal" >🔒 Locked</text>
  </g>
  <g>
  <rect x="410" y="48" width="185" height="95" rx="10" fill="#F5F5F5" />
  <rect x="410" y="48" width="185" height="95" rx="10" fill="none" stroke="#E0E0E0" stroke-width="1" />
  <circle cx="442" cy="95.5" r="22" fill="#FAFAFC" stroke="#E0E0E0" stroke-width="1.5" />
  <text x="442" y="101.5" font-size="18" fill="#B0B0B0" text-anchor="middle" font-weight="normal" >🔒</text>
  <text x="472" y="86" font-size="12" fill="#B0B0B0" text-anchor="start" font-weight="600" >10+ Stars</text>
  <text x="472" y="104" font-size="10" fill="#B0B0B0" text-anchor="start" font-weight="normal" >Earned 10+ stars</text>
  <text x="472" y="124" font-size="9" fill="#B0B0B0" text-anchor="start" font-weight="normal" >🔒 Locked</text>
  </g>
  <g>
  <rect x="605" y="48" width="185" height="95" rx="10" fill="#F5F5F5" />
  <rect x="605" y="48" width="185" height="95" rx="10" fill="none" stroke="#E0E0E0" stroke-width="1" />
  <circle cx="637" cy="95.5" r="22" fill="#FAFAFC" stroke="#E0E0E0" stroke-width="1.5" />
  <text x="637" y="101.5" font-size="18" fill="#B0B0B0" text-anchor="middle" font-weight="normal" >🔒</text>
  <text x="667" y="86" font-size="12" fill="#B0B0B0" text-anchor="start" font-weight="600" >50+ Stars</text>
  <text x="667" y="104" font-size="10" fill="#B0B0B0" text-anchor="start" font-weight="normal" >Earned 50+ stars</text>
  <text x="667" y="124" font-size="9" fill="#B0B0B0" text-anchor="start" font-weight="normal" >🔒 Locked</text>
  </g>
  <g>
  <rect x="20" y="153" width="185" height="95" rx="10" fill="#FFFFFF" />
  <rect x="20" y="153" width="185" height="95" rx="10" fill="none" stroke="url(#cardBorderGrad)" stroke-width="1.2" />
  <circle cx="52" cy="200.5" r="22" fill="#FAFAFC" stroke="url(#purpleMintGrad)" stroke-width="1.5" />
  <text x="52" y="206.5" font-size="20" fill="#4A4359" text-anchor="middle" font-weight="normal" >📦</text>
  <circle cx="190" cy="165" r="2" fill="#A8D8C8" class="sparkle" style="animation-delay: 0.32s" />
  <circle cx="197" cy="171" r="1.5" fill="#9B8EC4" class="sparkle" style="animation-delay: 0.72s" />
  <text x="82" y="191" font-size="12" fill="#4A4359" text-anchor="start" font-weight="600" >10+ Repos</text>
  <text x="82" y="209" font-size="10" fill="#8A80A0" text-anchor="start" font-weight="normal" >Created 10+ repositories</text>
  <text x="82" y="229" font-size="9" fill="#A8D8C8" text-anchor="start" font-weight="normal" >✅ Unlocked</text>
  </g>
  <g>
  <rect x="215" y="153" width="185" height="95" rx="10" fill="#FFFFFF" />
  <rect x="215" y="153" width="185" height="95" rx="10" fill="none" stroke="url(#cardBorderGrad)" stroke-width="1.2" />
  <circle cx="247" cy="200.5" r="22" fill="#FAFAFC" stroke="url(#purpleMintGrad)" stroke-width="1.5" />
  <text x="247" y="206.5" font-size="20" fill="#4A4359" text-anchor="middle" font-weight="normal" >🔀</text>
  <circle cx="385" cy="165" r="2" fill="#A8D8C8" class="sparkle" style="animation-delay: 0.4s" />
  <circle cx="392" cy="171" r="1.5" fill="#9B8EC4" class="sparkle" style="animation-delay: 0.8s" />
  <text x="277" y="191" font-size="12" fill="#4A4359" text-anchor="start" font-weight="600" >10+ PRs</text>
  <text x="277" y="209" font-size="10" fill="#8A80A0" text-anchor="start" font-weight="normal" >Opened 10+ Pull Requests</text>
  <text x="277" y="229" font-size="9" fill="#A8D8C8" text-anchor="start" font-weight="normal" >✅ Unlocked</text>
  </g>
  <g>
  <rect x="410" y="153" width="185" height="95" rx="10" fill="#FFFFFF" />
  <rect x="410" y="153" width="185" height="95" rx="10" fill="none" stroke="url(#cardBorderGrad)" stroke-width="1.2" />
  <circle cx="442" cy="200.5" r="22" fill="#FAFAFC" stroke="url(#purpleMintGrad)" stroke-width="1.5" />
  <text x="442" y="206.5" font-size="20" fill="#4A4359" text-anchor="middle" font-weight="normal" >📝</text>
  <circle cx="580" cy="165" r="2" fill="#A8D8C8" class="sparkle" style="animation-delay: 0.48s" />
  <circle cx="587" cy="171" r="1.5" fill="#9B8EC4" class="sparkle" style="animation-delay: 0.88s" />
  <text x="472" y="191" font-size="12" fill="#4A4359" text-anchor="start" font-weight="600" >10+ Issues</text>
  <text x="472" y="209" font-size="10" fill="#8A80A0" text-anchor="start" font-weight="normal" >Opened 10+ Issues</text>
  <text x="472" y="229" font-size="9" fill="#A8D8C8" text-anchor="start" font-weight="normal" >✅ Unlocked</text>
  </g>
  <g>
  <rect x="605" y="153" width="185" height="95" rx="10" fill="#F5F5F5" />
  <rect x="605" y="153" width="185" height="95" rx="10" fill="none" stroke="#E0E0E0" stroke-width="1" />
  <circle cx="637" cy="200.5" r="22" fill="#FAFAFC" stroke="#E0E0E0" stroke-width="1.5" />
  <text x="637" y="206.5" font-size="18" fill="#B0B0B0" text-anchor="middle" font-weight="normal" >🔒</text>
  <text x="667" y="191" font-size="12" fill="#B0B0B0" text-anchor="start" font-weight="600" >3+ Years</text>
  <text x="667" y="209" font-size="10" fill="#B0B0B0" text-anchor="start" font-weight="normal" >GitHub member for 3+ years</text>
  <text x="667" y="229" font-size="9" fill="#B0B0B0" text-anchor="start" font-weight="normal" >🔒 Locked</text>
  </g>
</svg>