<svg xmlns="http://www.w3.org/2000/svg" width="100%" height="100%" viewBox="0 0 800 194">
  <defs>
    <linearGradient id="purpleMintGrad" x1="0%" y1="0%" x2="100%" y2="100%">
      <stop offset="0%" stop-color="#9B8EC4" />
      <stop offset="100%" stop-color="#A8D8C8" />
    </linearGradient>
    <linearGradient id="purpleMintGradH" x1="0%" y1="0%" x2="100%" y2="0%">
      <stop offset="0%" stop-color="#9B8EC4" />
      <stop offset="100%" stop-color="#A8D8C8" />
    </linearGradient>
    <linearGradient id="cardBorderGrad" x1="0%" y1="0%" x2="100%" y2="100%">
      <stop offset="0%" stop-color="#9B8EC4" stop-opacity="0.6" />
      <stop offset="100%" stop-color="#A8D8C8" stop-opacity="0.6" />
    </linearGradient>
    
  </defs>
  <style>
    text { font-family: 'Segoe UI', 'Helvetica Neue', Ubuntu, sans-serif; }
    
    @keyframes slideIn {
      from { opacity: 0; transform: translateX(-8px); }
      to { opacity: 1; transform: translateX(0); }
    }
    
  </style>
  <rect x="0" y="0" width="800" height="194" rx="16" fill="#FAFAFC" />
  <rect x="0" y="0" width="800" height="194" rx="16" fill="none" stroke="url(#cardBorderGrad)" stroke-width="1.5" />
  <text x="400.0" y="32" font-size="16" fill="#5A5070" text-anchor="middle" font-weight="700" >🛠  Skills &amp; Languages</text>
  <g>
    <rect x="99.25" y="50" width="208.5" height="28" rx="14" fill="#FFFFFF" stroke="#E0E0E0" stroke-width="1" />
    <circle cx="113.25" cy="64.0" r="5" fill="#DA5B0B" />
    <circle cx="113.25" cy="64.0" r="5" fill="none" stroke="#FAFAFC" stroke-width="1" />
    <text x="125.25" y="68.5" font-size="11.5" fill="#4A4359" font-family="'Segoe UI', 'Helvetica Neue', Ubuntu, sans-serif">Jupyter Notebook</text>
    <text x="297.75" y="68.5" font-size="10" fill="#8A80A0" text-anchor="end" font-family="'Segoe UI', 'Helvetica Neue', Ubuntu, sans-serif">80.6%</text>
  </g>
  <g>
    <rect x="317.75" y="50" width="126.0" height="28" rx="14" fill="#FFFFFF" stroke="#E0E0E0" stroke-width="1" />
    <circle cx="331.75" cy="64.0" r="5" fill="#3572A5" />
    <circle cx="331.75" cy="64.0" r="5" fill="none" stroke="#FAFAFC" stroke-width="1" />
    <text x="343.75" y="68.5" font-size="11.5" fill="#4A4359" font-family="'Segoe UI', 'Helvetica Neue', Ubuntu, sans-serif">Python</text>
    <text x="433.75" y="68.5" font-size="10" fill="#8A80A0" text-anchor="end" font-family="'Segoe UI', 'Helvetica Neue', Ubuntu, sans-serif">9.2%</text>
  </g>
  <g>
    <rect x="453.75" y="50" width="118.5" height="28" rx="14" fill="#FFFFFF" stroke="#E0E0E0" stroke-width="1" />
    <circle cx="467.75" cy="64.0" r="5" fill="#89e051" />
    <circle cx="467.75" cy="64.0" r="5" fill="none" stroke="#FAFAFC" stroke-width="1" />
    <text x="479.75" y="68.5" font-size="11.5" fill="#4A4359" font-family="'Segoe UI', 'Helvetica Neue', Ubuntu, sans-serif">Shell</text>
    <text x="562.25" y="68.5" font-size="10" fill="#8A80A0" text-anchor="end" font-family="'Segoe UI', 'Helvetica Neue', Ubuntu, sans-serif">4.8%</text>
  </g>
  <g>
    <rect x="582.25" y="50" width="118.5" height="28" rx="14" fill="#FFFFFF" stroke="#E0E0E0" stroke-width="1" />
    <circle cx="596.25" cy="64.0" r="5" fill="#ff5a03" />
    <circle cx="596.25" cy="64.0" r="5" fill="none" stroke="#FAFAFC" stroke-width="1" />
    <text x="608.25" y="68.5" font-size="11.5" fill="#4A4359" font-family="'Segoe UI', 'Helvetica Neue', Ubuntu, sans-serif">Astro</text>
    <text x="690.75" y="68.5" font-size="10" fill="#8A80A0" text-anchor="end" font-family="'Segoe UI', 'Helvetica Neue', Ubuntu, sans-serif">2.3%</text>
  </g>
  <g>
    <rect x="50.0" y="88" width="156.0" height="28" rx="14" fill="#FFFFFF" stroke="#E0E0E0" stroke-width="1" />
    <circle cx="64.0" cy="102.0" r="5" fill="#384d54" />
    <circle cx="64.0" cy="102.0" r="5" fill="none" stroke="#FAFAFC" stroke-width="1" />
    <text x="76.0" y="106.5" font-size="11.5" fill="#4A4359" font-family="'Segoe UI', 'Helvetica Neue', Ubuntu, sans-serif">Dockerfile</text>
    <text x="196.0" y="106.5" font-size="10" fill="#8A80A0" text-anchor="end" font-family="'Segoe UI', 'Helvetica Neue', Ubuntu, sans-serif">1.5%</text>
  </g>
  <g>
    <rect x="216.0" y="88" width="103.5" height="28" rx="14" fill="#FFFFFF" stroke="#E0E0E0" stroke-width="1" />
    <circle cx="230.0" cy="102.0" r="5" fill="#663399" />
    <circle cx="230.0" cy="102.0" r="5" fill="none" stroke="#FAFAFC" stroke-width="1" />
    <text x="242.0" y="106.5" font-size="11.5" fill="#4A4359" font-family="'Segoe UI', 'Helvetica Neue', Ubuntu, sans-serif">CSS</text>
    <text x="309.5" y="106.5" font-size="10" fill="#8A80A0" text-anchor="end" font-family="'Segoe UI', 'Helvetica Neue', Ubuntu, sans-serif">0.5%</text>
  </g>
  <g>
    <rect x="329.5" y="88" width="156.0" height="28" rx="14" fill="#FFFFFF" stroke="#E0E0E0" stroke-width="1" />
    <circle cx="343.5" cy="102.0" r="5" fill="#3178c6" />
    <circle cx="343.5" cy="102.0" r="5" fill="none" stroke="#FAFAFC" stroke-width="1" />
    <text x="355.5" y="106.5" font-size="11.5" fill="#4A4359" font-family="'Segoe UI', 'Helvetica Neue', Ubuntu, sans-serif">TypeScript</text>
    <text x="475.5" y="106.5" font-size="10" fill="#8A80A0" text-anchor="end" font-family="'Segoe UI', 'Helvetica Neue', Ubuntu, sans-serif">0.4%</text>
  </g>
  <g>
    <rect x="495.5" y="88" width="88.5" height="28" rx="14" fill="#FFFFFF" stroke="#E0E0E0" stroke-width="1" />
    <circle cx="509.5" cy="102.0" r="5" fill="#198CE7" />
    <circle cx="509.5" cy="102.0" r="5" fill="none" stroke="#FAFAFC" stroke-width="1" />
    <text x="521.5" y="106.5" font-size="11.5" fill="#4A4359" font-family="'Segoe UI', 'Helvetica Neue', Ubuntu, sans-serif">R</text>
    <text x="574.0" y="106.5" font-size="10" fill="#8A80A0" text-anchor="end" font-family="'Segoe UI', 'Helvetica Neue', Ubuntu, sans-serif">0.3%</text>
  </g>
  <g>
    <rect x="594.0" y="88" width="156.0" height="28" rx="14" fill="#FFFFFF" stroke="#E0E0E0" stroke-width="1" />
    <circle cx="608.0" cy="102.0" r="5" fill="#f1e05a" />
    <circle cx="608.0" cy="102.0" r="5" fill="none" stroke="#FAFAFC" stroke-width="1" />
    <text x="620.0" y="106.5" font-size="11.5" fill="#4A4359" font-family="'Segoe UI', 'Helvetica Neue', Ubuntu, sans-serif">JavaScript</text>
    <text x="740.0" y="106.5" font-size="10" fill="#8A80A0" text-anchor="end" font-family="'Segoe UI', 'Helvetica Neue', Ubuntu, sans-serif">0.3%</text>
  </g>
  <g>
    <rect x="329.5" y="126" width="141.0" height="28" rx="14" fill="#FFFFFF" stroke="#E0E0E0" stroke-width="1" />
    <circle cx="343.5" cy="140.0" r="5" fill="#427819" />
    <circle cx="343.5" cy="140.0" r="5" fill="none" stroke="#FAFAFC" stroke-width="1" />
    <text x="355.5" y="144.5" font-size="11.5" fill="#4A4359" font-family="'Segoe UI', 'Helvetica Neue', Ubuntu, sans-serif">Makefile</text>
    <text x="460.5" y="144.5" font-size="10" fill="#8A80A0" text-anchor="end" font-family="'Segoe UI', 'Helvetica Neue', Ubuntu, sans-serif">0.1%</text>
  </g>
</svg>